<?xml version="1.0" encoding="UTF-8" standalone="no"?>
<svg
   xmlns:dc="http://purl.org/dc/elements/1.1/"
   xmlns:cc="http://creativecommons.org/ns#"
   xmlns:rdf="http://www.w3.org/1999/02/22-rdf-syntax-ns#"
   xmlns:svg="http://www.w3.org/2000/svg"
   xmlns="http://www.w3.org/2000/svg"
   viewBox="0 0 423.33334 170.25333"
   height="170.25333"
   width="423.33334"
   xml:space="preserve"
   id="svg2"
   version="1.1"><metadata
     id="metadata8"><rdf:RDF><cc:Work
         rdf:about=""><dc:format>image/svg+xml</dc:format><dc:type
           rdf:resource="http://purl.org/dc/dcmitype/StillImage" /></cc:Work></rdf:RDF></metadata><defs
     id="defs6" /><g
     transform="matrix(1.3333333,0,0,-1.3333333,0,170.25333)"
     id="g10"><g
       transform="scale(0.1)"
       id="g12"><path
         id="path14"
         style="fill:#f47216;fill-opacity:1;fill-rule:nonzero;stroke:none"
         d="M 17.4492,55.5 H 39.6484 V 86.6992 H 17.4492 V 55.5" /><path
         id="path16"
         style="fill:#f47216;fill-opacity:1;fill-rule:nonzero;stroke:none"
         d="m 163.398,69.6016 c -23.039,0 -37.347,11.4375 -37.347,29.8476 0,15.2498 7.109,26.4728 41.836,31.6988 11.32,1.793 30.48,4.262 45.16,5.614 v -11.821 c 0,-22.48 -4.043,-30.4722 -13.731,-40.9722 -8.515,-9.3985 -20.937,-14.3672 -35.918,-14.3672 z m 67.645,25.3476 V 158.25 c 0,38.41 -20.828,60.441 -57.148,60.441 -35.086,0 -58.129,-20.203 -60.141,-52.711 L 113.512,162 h 18.601 l 0.227,3.5 c 1.488,22.941 16.633,36.102 41.555,36.102 17.863,0 39.152,-7.372 39.152,-42.461 v -5.243 C 198.191,152.602 178.891,150.141 165.531,148.16 125.359,142 107.449,126.891 107.449,99.1484 107.449,71.25 129.207,52.5 161.598,52.5 c 22.871,0 40.879,8.1289 52.754,23.6484 0.418,-6.5195 1.144,-12.8671 2.058,-17.5976 L 216.996,55.5 h 17.934 l -0.969,4.5313 c -1.746,8.1601 -2.918,22.1875 -2.918,34.9179" /><path
         id="path18"
         style="fill:#f47216;fill-opacity:1;fill-rule:nonzero;stroke:none"
         d="m 383.594,201.602 c 30.996,0 50.25,-25.352 50.25,-66.153 0,-40.6092 -19.254,-65.8474 -50.25,-65.8474 -28.774,0 -46.653,25.2382 -46.653,65.8474 0,40.801 17.879,66.153 46.653,66.153 z m 1.199,17.089 c -19.926,0 -36.758,-8.89 -47.25,-24.402 v 21.102 H 319.246 V 0 h 18.297 V 76.7891 C 347.977,61.1914 364.566,52.5 384.793,52.5 c 41.727,0 67.648,31.7891 67.648,82.949 0,51.352 -25.921,83.242 -67.648,83.242" /><path
         id="path20"
         style="fill:#f47216;fill-opacity:1;fill-rule:nonzero;stroke:none"
         d="m 594.789,201.602 c 30.996,0 50.25,-25.352 50.25,-66.153 0,-40.6092 -19.254,-65.8474 -50.25,-65.8474 -28.773,0 -46.648,25.2382 -46.648,65.8474 0,40.801 17.875,66.153 46.648,66.153 z m 1.203,17.089 c -19.929,0 -36.765,-8.89 -47.254,-24.402 v 21.102 h -18.3 V 0 h 18.3 V 76.7813 C 559.176,61.1914 575.758,52.5 595.992,52.5 c 41.723,0 67.645,31.7891 67.645,82.949 0,51.352 -25.922,83.242 -67.645,83.242" /><path
         id="path22"
         style="fill:#f47216;fill-opacity:1;fill-rule:nonzero;stroke:none"
         d="m 823.543,55.5 h 22.199 V 86.6992 H 823.543 V 55.5" /><path
         id="path24"
         style="fill:#f47216;fill-opacity:1;fill-rule:nonzero;stroke:none"
         d="m 974.508,147.211 c -28.496,6.367 -38.469,10.117 -38.469,27.238 0,16.051 14.289,26.84 35.551,26.84 25.07,0 39.45,-14.051 39.45,-38.539 V 159 h 18.63 l -0.03,3.789 c -0.32,35.012 -22.03,55.902 -58.05,55.902 -31.703,0 -53.848,-18.429 -53.848,-44.839 0,-32.512 26.5,-38.442 52.121,-44.161 36.177,-8.171 45.977,-13.05 45.977,-31.7418 0,-16.6875 -15.977,-28.3476 -38.848,-28.3476 -28.535,0 -44.25,14.7578 -44.25,41.5464 v 3.75 H 914.41 l 0.031,-3.777 c 0.321,-36.9022 23.7,-58.9218 62.551,-58.9218 33.648,0 57.148,19.0625 57.148,46.3516 0,35.4692 -30.32,42.1792 -59.632,48.6602" /><path
         id="path26"
         style="fill:#f47216;fill-opacity:1;fill-rule:nonzero;stroke:none"
         d="m 1169.29,69.6016 c -32.41,0 -51.75,24.6172 -51.75,65.8474 0,41.231 19.34,65.84 51.75,65.84 33.07,0 52.04,-23.988 52.04,-65.84 0,-41.8396 -18.97,-65.8474 -52.04,-65.8474 z m 0,149.0894 c -43.4,0 -70.35,-31.89 -70.35,-83.242 0,-51.3396 26.95,-83.2498 70.35,-83.2498 43.57,0 70.64,31.9102 70.64,83.2498 0,51.352 -27.07,83.242 -70.64,83.242" /><path
         id="path28"
         style="fill:#f47216;fill-opacity:1;fill-rule:nonzero;stroke:none"
         d="m 1360.99,277.492 c -16.77,0 -36.75,-7.254 -36.75,-41.844 v -20.257 h -28.2 v -17.102 h 28.2 V 55.5 h 18.29 v 142.789 h 31.81 v 17.102 h -31.81 v 19.347 c 0,22.614 9.94,25.653 19.66,25.653 2.9,0 5.87,-0.539 7.67,-1.051 l 4.77,-1.36 v 17.879 l -2.94,0.653 c -2.88,0.629 -6.69,0.98 -10.7,0.98" /><path
         id="path30"
         style="fill:#f47216;fill-opacity:1;fill-rule:nonzero;stroke:none"
         d="m 1485.78,72.3008 c -11.96,0 -18.45,3.8008 -18.45,23.8476 V 198.289 h 31.2 v 17.102 h -31.2 v 35.097 h -18.3 v -35.097 h -28.49 v -17.102 h 28.49 V 96.1484 c 0,-28.5273 10.97,-41.2382 35.55,-41.2382 3.94,0 9.35,0.6484 12.43,1.2617 l 3.02,0.5976 v 17.7696 l -4.65,-1.1485 c -2.16,-0.5312 -6.34,-1.0898 -9.6,-1.0898" /><path
         id="path32"
         style="fill:#f47216;fill-opacity:1;fill-rule:nonzero;stroke:none"
         d="m 1715.23,81.2813 c -3.89,12.2304 -7.78,24.5777 -11.68,36.9377 l -30.21,97.172 h -22.32 l -30.21,-97.172 c -3.9,-12.367 -7.79,-24.719 -11.68,-36.9573 l -42,134.1293 h -18.96 L 1598.53,55.5 h 21.09 l 42.57,134.391 42.55,-134.391 h 21.09 l 50.36,159.891 h -18.96 l -42,-134.1097" /><path
         id="path34"
         style="fill:#f47216;fill-opacity:1;fill-rule:nonzero;stroke:none"
         d="m 1882.98,69.6016 c -23.04,0 -37.36,11.4375 -37.36,29.8476 0,15.2418 7.11,26.4728 41.84,31.6988 11.33,1.793 30.49,4.262 45.17,5.614 v -11.821 c 0,-22.472 -4.05,-30.4722 -13.73,-40.9722 -8.52,-9.3985 -20.94,-14.3672 -35.92,-14.3672 z m 67.64,25.3476 V 158.25 c 0,38.41 -20.83,60.441 -57.14,60.441 -35.09,0 -58.14,-20.203 -60.14,-52.711 L 1833.1,162 h 18.59 l 0.22,3.5 c 1.5,22.941 16.64,36.102 41.57,36.102 17.86,0 39.15,-7.372 39.15,-42.461 v -5.243 c -14.86,-1.296 -34.15,-3.757 -47.52,-5.738 -40.17,-6.16 -58.08,-21.269 -58.08,-49.0116 0,-27.8984 21.76,-46.6484 54.15,-46.6484 22.86,0 40.87,8.1289 52.75,23.6484 0.42,-6.5195 1.15,-12.8671 2.07,-17.6093 l 0.58,-3.0391 h 17.93 l -0.97,4.5313 c -1.74,8.1601 -2.92,22.1875 -2.92,34.9179" /><path
         id="path36"
         style="fill:#f47216;fill-opacity:1;fill-rule:nonzero;stroke:none"
         d="m 2102.58,216.289 c -19.2,0 -34.93,-7.457 -45.45,-21.289 v 20.391 h -18.3 V 55.5 h 18.3 v 88.352 c 0,34.91 16.25,54.136 45.75,54.136 2.55,0 5.96,-0.277 8.23,-0.558 l 4.22,-0.532 v 17.75 l -2.93,0.661 c -3.26,0.722 -7.21,0.98 -9.82,0.98" /><path
         id="path38"
         style="fill:#f47216;fill-opacity:1;fill-rule:nonzero;stroke:none"
         d="m 2238.74,201.602 c 29.26,0 47.76,-19.993 50.06,-53.711 h -100.37 c 2.65,33.25 21.67,53.711 50.31,53.711 z m 0,17.089 c -41.83,0 -68.85,-31.492 -68.85,-80.242 0,-53.199 27.07,-86.2498 70.65,-86.2498 34.32,0 59.8,20.1992 64.9,51.4488 l 0.71,4.352 h -18.99 l -0.53,-3.121 c -3.7,-21.9493 -21.36,-35.5782 -46.09,-35.5782 -30.74,0 -50.51,23.4609 -52.24,61.4882 h 118.68 v 3.75 c 0,8.789 -0.22,18.051 -1.85,26.172 -6.43,36.309 -31.24,57.98 -66.39,57.98" /><path
         id="path40"
         style="fill:#f47216;fill-opacity:1;fill-rule:nonzero;stroke:none"
         d="m 2466.9,55.5 h 22.2 v 31.1992 h -22.2 V 55.5" /><path
         id="path42"
         style="fill:#f47216;fill-opacity:1;fill-rule:nonzero;stroke:none"
         d="m 2701.3,81.2813 c -3.9,12.2304 -7.78,24.5777 -11.68,36.9377 l -30.21,97.172 h -22.33 l -30.21,-97.172 c -3.89,-12.367 -7.79,-24.719 -11.68,-36.9573 L 2553.2,215.391 h -18.97 L 2584.59,55.5 h 21.1 L 2648.25,189.891 2690.8,55.5 h 21.09 l 50.37,159.891 h -18.97 L 2701.3,81.2813" /><path
         id="path44"
         style="fill:#f47216;fill-opacity:1;fill-rule:nonzero;stroke:none"
         d="m 2883.74,201.602 c 29.26,0 47.76,-19.993 50.06,-53.711 h -100.37 c 2.65,33.25 21.67,53.711 50.31,53.711 z m 0,17.089 c -41.83,0 -68.85,-31.492 -68.85,-80.242 0,-53.199 27.07,-86.2498 70.65,-86.2498 34.32,0 59.8,20.1992 64.9,51.4488 l 0.71,4.352 h -18.99 l -0.53,-3.121 c -3.7,-21.9493 -21.36,-35.5782 -46.09,-35.5782 -30.74,0 -50.51,23.4609 -52.24,61.4882 h 118.68 v 3.75 c 0,8.789 -0.22,18.051 -1.85,26.172 -6.43,36.309 -31.24,57.98 -66.39,57.98" /><path
         id="path46"
         style="fill:#f47216;fill-opacity:1;fill-rule:nonzero;stroke:none"
         d="m 3094.33,201.602 c 30.99,0 50.25,-25.352 50.25,-66.153 0,-40.6092 -19.26,-65.8474 -50.25,-65.8474 -28.77,0 -46.65,25.2382 -46.65,65.8474 0,40.801 17.88,66.153 46.65,66.153 z m 1.2,17.089 c -19.93,0 -36.76,-8.89 -47.25,-24.402 v 82.313 h -18.3 V 55.5 h 18.3 V 76.7813 C 3058.71,61.1914 3075.29,52.5 3095.53,52.5 c 41.73,0 67.64,31.7891 67.64,82.949 0,51.352 -25.91,83.242 -67.64,83.242" /><path
         id="path48"
         style="fill:#f47216;fill-opacity:1;fill-rule:nonzero;stroke:none"
         d="m 2823,829.848 h 0.1 c 0,0.101 0,0.199 -0.1,0.3 z m 0,136 v -0.399 c 0.1,0.102 0.1,0.199 0.1,0.399 h -0.1" /><path
         id="path50"
         style="fill:#f47216;fill-opacity:1;fill-rule:nonzero;stroke:none"
         d="m 2982.1,713.75 c -90.1,0 -146.1,70.598 -146.1,184.094 0,113.406 56,184.006 146.1,184.006 100.1,0 160,-68.8 160,-184.006 0,-115.297 -59.9,-184.094 -160,-184.094 z M 2823,830.148 c 0.1,-0.101 0.1,-0.199 0.1,-0.3 h -0.1 z m 0.1,135.7 c 0,-0.2 0,-0.297 -0.1,-0.399 v 0.399 z M 2981,1114.85 c -64.4,0 -114.7,-28.8 -144.2,-80.7 0.3,13.8 0.3,27.3 0.3,40.7 v 191 H 2803 v -577.1 h 34.1 v 32.098 c 0,13.3 0,26.8 -0.3,40.601 29.5,-51.898 79.8,-80.601 144.2,-80.601 119.7,0 194,83.101 194,216.996 0,133.806 -74.3,217.006 -194,217.006" /><path
         id="path52"
         style="fill:#f47216;fill-opacity:1;fill-rule:nonzero;stroke:none"
         d="m 2586,869.848 c 0,-64.102 -10,-84.899 -40,-115 -27.9,-27.903 -66.3,-42.004 -113.9,-42.004 -74.1,0 -120,33.301 -120,87.004 0,36.898 15.6,76.8 131.3,92 33.3,4.402 94.7,11.5 142.6,16.797 z m 40.9,-171.301 c -3.8,20.801 -7.9,56.902 -7.9,87.301 V 959.75 c 0.5,48.3 -12.6,86.39 -38.9,112.9 -26.6,26.9 -66.8,41.2 -116.1,41.2 -97.8,0 -160.2,-51.3 -166.9,-137.303 l -0.9,-10.699 h 34.1 l 0.7,9.199 c 5,67.203 53.5,105.803 133,105.803 55.7,0 122,-21.2 122,-122.002 v -17 c -47.1,-5 -107.8,-12.2 -147.3,-17.098 C 2329.1,910.047 2278,870.344 2278,799.848 c 0,-71.797 61.9,-120 154.1,-120 68.3,0 123.7,27 155.4,74.101 0.9,-20.402 3.2,-40 5.6,-58.398 l 1.2,-8.703 h 34.7 l -2.1,11.699" /><path
         id="path54"
         style="fill:#f47216;fill-opacity:1;fill-rule:nonzero;stroke:none"
         d="m 2131,1265.85 v -577.1 h -33.9 v 577.1 h 33.9" /><path
         id="path56"
         style="fill:#f47216;fill-opacity:1;fill-rule:nonzero;stroke:none"
         d="m 1158,724.348 v -33.203 l -10.2,-1.497 c -7.4,-1.101 -19.8,-2.8 -29.8,-2.8 -61.4,0 -90,32 -90,100.996 v 286.006 h -84 v 33 h 84 v 92 h 34 v -92 h 92 v -33 h -92 V 787.844 c 0,-50.899 14.2,-67.996 56,-67.996 8.5,0 20,1.601 26.8,2.601 l 13.2,1.899" /><path
         id="path58"
         style="fill:#f47216;fill-opacity:1;fill-rule:nonzero;stroke:none"
         d="m 674,1081.85 c 94.902,0 155,-60.3 158.898,-158.002 H 516.496 C 523.102,1021.55 582.699,1081.85 674,1081.85 Z M 866,901.848 c 0,23.199 -1.297,43 -4.102,60.902 -18.199,93.8 -90.097,152.1 -187.898,152.1 -116.598,0 -192,-82.1 -192,-209.002 0,-136.098 78.199,-224 199,-224 95.402,0 166,51.902 179.898,132.199 l 2,11.801 H 827.5 l -1.301,-8.5 C 815.801,753.449 760.199,713.75 681,713.75 c -97.203,0 -161.098,69.598 -164.801,178.098 H 866 v 10" /><path
         id="path60"
         style="fill:#f47216;fill-opacity:1;fill-rule:nonzero;stroke:none"
         d="M 336,940.848 V 688.75 h -34 v 252.098 c 0,92.202 -43.5,141.002 -126,141.002 -79.5977,0 -142,-58.9 -142,-134.006 V 688.75 H 0 v 418.1 h 34 v -10 c 0,-18.1 0,-35.6 -0.4023,-53.21 30.5039,43.71 82.5003,70.21 142.4023,70.21 101.699,0 160,-63.1 160,-173.002" /><path
         id="path62"
         style="fill:#f47216;fill-opacity:1;fill-rule:nonzero;stroke:none"
         d="m 1874.2,1179.43 c -54.93,62.52 -134.62,95.28 -236.85,97.37 -102.69,2.11 -185.99,-27.75 -247.43,-88.61 -111.51,-110.47 -110.95,-282.288 -110.86,-288.885 -0.24,-6.86 -4.44,-169.274 100.91,-280.133 60.32,-63.465 144.03,-96.563 249.29,-98.375 65.34,0.957 116.87,13.875 167.09,41.902 l -14.61,26.192 c -45.66,-25.469 -92.81,-37.219 -152.43,-38.094 -96.36,1.668 -172.88,31.57 -227.43,88.875 -96.7,101.582 -92.89,257.082 -92.83,259.281 -0.02,1.656 -0.36,166.687 102.13,268.067 55.44,54.84 131.09,81.74 225.57,79.78 93.38,-1.91 165.64,-31.19 214.79,-87.03 C 1941.1,1058 1925.3,900 1925.15,898.488 1906.84,737.211 1779.8,719.797 1726.04,719.797 H 1489.7 l 316.34,354.193 v 32.81 h -351 v -33 H 1760.6 L 1446.04,721.613 v -32.816 h 34.01 v 1 h 245.99 c 128.74,0 214.32,76.754 228.92,205.379 0.76,6.984 17.51,172.414 -80.76,284.254" /><path
         id="path64"
         style="fill:#f47216;fill-opacity:1;fill-rule:nonzero;stroke:none"
         d="m 10.0391,390.91 v -20 H 3165.05 v 20 H 10.0391" /></g></g></svg>